# xmcd
#
# Track frame offsets: 
#        150
#        9140
#        22494
#        34337
#        45046
#        57933
#        69261
#        82202
#        99759
#        109011
#        118560
#        130705
#        141087
#        154995
#        167428
#
# Disc length: 2368 seconds
#
# Revision: 0
# Processed by: cddbd v1.5.2PL0 Copyright (c) Steve Scherf et al.
# Submitted via: ExactAudioCopyFreeDBPlugin 1.0
#
DISCID=b7093e0f
DTITLE=2-Tones - Ritojo Rhythm
DYEAR=2005
DGENRE=Rockabilly
TTITLE0=Three Little Chickens
TTITLE1=Let The Music Play
TTITLE2=Dancing Shoes
TTITLE3=Call Of The Firebrigade
TTITLE4=Who Was That Cat?
TTITLE5=What A Life
TTITLE6=Purr Kitty Purr
TTITLE7=Give Me A Call
TTITLE8=Snatch It And Grab It
TTITLE9=I Beg Of You
TTITLE10=Baby What You're Doing To Me?
TTITLE11=Who Left The Door Open?
TTITLE12=You Look So Good To Me
TTITLE13=One Hand Loose
TTITLE14=Pain And Misery
EXTD=
EXTT0=
EXTT1=
EXTT2=
EXTT3=
EXTT4=
EXTT5=
EXTT6=
EXTT7=
EXTT8=
EXTT9=
EXTT10=
EXTT11=
EXTT12=
EXTT13=
EXTT14=
PLAYORDER=
